# xmcd CD database file
#
# Track frame offsets:
#	150
#	21160
#	42840
#	73430
#	84279
#	104354
#	129635
#	146770
#	171485
#	184997
#	201832
#	216206
#	230970
#	254860
#	284829
#	304354
#	319733
#
# Disc length: 4540 seconds
#
# Revision: 6
# Processed by: cddbd v1.5.1PL0 Copyright (c) Steve Scherf et al.
# Submitted via: CDex 1.50beta8
#
DISCID=1f11ba11
DTITLE=Stevie Ray Vaughan - Box Set Disc3
DYEAR=2000
DGENRE=Rock
TTITLE0=Lookin' Out The Window (live)
TTITLE1=Look At Little Sister (live)
TTITLE2=Willie The Wimp (live)
TTITLE3=The House Is Rockin'
TTITLE4=Crossfire (live)
TTITLE5=Wall Of Denial
TTITLE6=Dirty Pool (Stevie Ray Vaughan)
TTITLE7=Goin' Down (live)
TTITLE8=Rood Mood (Live)
TTITLE9=Pride And Joy (Live)
TTITLE10=Testify (Live)
TTITLE11=Long Way From Home
TTITLE12=Tightrope (live)
TTITLE13=Cold Shot (live)
TTITLE14=The Things (That) I Used To Do (live)
TTITLE15=Let Me Love You Baby (live)
TTITLE16=Leave My Girl Alone (live)
EXTD=YEAR: 2000
EXTT0=
EXTT1=
EXTT2=
EXTT3=
EXTT4=
EXTT5=
EXTT6=
EXTT7=
EXTT8=
EXTT9=
EXTT10=
EXTT11=
EXTT12=
EXTT13=
EXTT14=
EXTT15=
EXTT16=
PLAYORDER=
